<svg xmlns="http://www.w3.org/2000/svg" viewBox="0 0 103.53 68.47"><g id="Capa_2" data-name="Capa 2"><g id="Capa_1-2" data-name="Capa 1"><path d="M43.09,68.08H34.32V40.92c0-1.69-.08-3.58-.24-5.65a23.26,23.26,0,0,0-1.17-5.85A11.23,11.23,0,0,0,30,24.85,7.39,7.39,0,0,0,24.7,23a15.93,15.93,0,0,0-5.89,1,13.75,13.75,0,0,0-4,2.31,6.53,6.53,0,0,0-2,2.64A2,2,0,0,0,13,31a2.3,2.3,0,0,0,1.27.71c.6.16,1.27.3,2,.43l2.4.37a10.58,10.58,0,0,1,2.41.66,10.55,10.55,0,0,1,4.95,3.92,17.15,17.15,0,0,1,2.59,6,24.77,24.77,0,0,1,.57,6.79A18.14,18.14,0,0,1,27.91,56a22.48,22.48,0,0,1-6.41,9.05,13.21,13.21,0,0,1-9.25,3.4,12.46,12.46,0,0,1-7.63-2.59,12.21,12.21,0,0,1-4-5.94,15.2,15.2,0,0,1-.24-7.64A18.32,18.32,0,0,1,4,44.65a22.37,22.37,0,0,1,7.64-6,28.78,28.78,0,0,1,11.84-2.73,1.61,1.61,0,0,1,.66-.1,12.07,12.07,0,0,0-3.3-2A13.94,13.94,0,0,0,17.16,33a26.32,26.32,0,0,0-3.73-.09c-1.16.06-2.2.16-3.11.28s-1.49.22-1.74.29a5,5,0,0,1,.8-3.35,13.16,13.16,0,0,1,3.2-3.68,18.69,18.69,0,0,1,5.19-2.92,19.08,19.08,0,0,1,6.93-1.18,18.53,18.53,0,0,1,7.65,1.41,13.26,13.26,0,0,1,5,3.87,15,15,0,0,1,2.73,5.89,32.28,32.28,0,0,1,.81,7.4V60a23.5,23.5,0,0,0,.24,3.77A8.42,8.42,0,0,0,41.77,66a2.43,2.43,0,0,0,.75,1,1.19,1.19,0,0,0,.57.23ZM24.8,36.59a26.06,26.06,0,0,0-7.12.94,16.5,16.5,0,0,0-5.85,2.92,14.06,14.06,0,0,0-4,5,16,16,0,0,0-1.46,7.07,19,19,0,0,0,.42,4,12.62,12.62,0,0,0,1.42,3.68,10.48,10.48,0,0,0,2.5,2.92,7.79,7.79,0,0,0,3.67,1.61,8.1,8.1,0,0,0,4.25-.19,12.78,12.78,0,0,0,3.67-1.93,13.34,13.34,0,0,0,3-3.07,17.36,17.36,0,0,0,2-3.68A21.25,21.25,0,0,0,28.52,51a22,22,0,0,0,.05-5.19,18.71,18.71,0,0,0-1.23-5A15.52,15.52,0,0,0,24.8,36.59Z"/><path d="M58.74,68.08H47.8v-.85a1.19,1.19,0,0,0,.57-.23,2.19,2.19,0,0,0,.71-1,12.42,12.42,0,0,0,.61-2.22A19.92,19.92,0,0,0,50,60V8.11A7.48,7.48,0,0,0,49,4.9q-.61-.75-1-.75l-.28-.85L56.57,0V60a23.5,23.5,0,0,0,.24,3.77A8.82,8.82,0,0,0,57.42,66a2.35,2.35,0,0,0,.76,1,1.2,1.2,0,0,0,.56.23Z"/><path d="M103.53,68.08H94.76V43.75a72.4,72.4,0,0,1-1.6,7.74A42,42,0,0,1,91,57.71a33.67,33.67,0,0,1-2.17,3.87A19.21,19.21,0,0,1,86,65a14.42,14.42,0,0,1-3.59,2.5,9.78,9.78,0,0,1-4.29.94,11.09,11.09,0,0,1-6.27-1.6A11.47,11.47,0,0,1,68,62.71,18.44,18.44,0,0,1,66.14,57a40.85,40.85,0,0,1-.51-6.42V30.74A19.79,19.79,0,0,0,65.34,27a11.26,11.26,0,0,0-.61-2.17,2.63,2.63,0,0,0-.71-1,1.12,1.12,0,0,0-.56-.28v-.85h8.77V50.54q0,1.7.18,4.11a26.66,26.66,0,0,0,.81,4.71A14.91,14.91,0,0,0,75,63.56a6,6,0,0,0,7,2.54A9.92,9.92,0,0,0,85.47,64a18.33,18.33,0,0,0,2.79-3.21,25.85,25.85,0,0,0,2-3.39,48.23,48.23,0,0,0,3.3-11.08,86.82,86.82,0,0,0,1.22-15.61A19.92,19.92,0,0,0,94.48,27a11.26,11.26,0,0,0-.61-2.17,2.63,2.63,0,0,0-.71-1,1.11,1.11,0,0,0-.57-.28v-.85h8.77V60a23.5,23.5,0,0,0,.24,3.77,8.82,8.82,0,0,0,.61,2.22,2.43,2.43,0,0,0,.76,1,1.2,1.2,0,0,0,.56.23Z"/></g></g></svg>